HIERARCHY
ROOT Hips
{
    OFFSET 0.000000 0.000000 0.000000
    CHANNELS 6 Xposition Yposition Zposition Zrotation Yrotation Xrotation
    JOINT Chest
    {
        OFFSET 0.000000 1.634758 -0.000000
        CHANNELS 3 Zrotation Yrotation Xrotation
        JOINT Chest2
        {
            OFFSET 0.000000 2.197341 0.000000
            CHANNELS 3 Zrotation Yrotation Xrotation
            JOINT Neck
            {
                OFFSET 0.000000 0.961544 0.000000
                CHANNELS 3 Zrotation Yrotation Xrotation
                JOINT Head
                {
                    OFFSET 0.000000 0.632542 -0.032565
                    CHANNELS 3 Zrotation Yrotation Xrotation
                    End Site
                    {
                        OFFSET -0.000001 0.439502 2.922845
                    }
                }
            }
            JOINT LeftCollar
            {
                OFFSET 0.167536 0.778237 -0.168280
                CHANNELS 3 Zrotation Yrotation Xrotation
                JOINT LeftShoulder
                {
                    OFFSET 0.831514 -0.002900 0.006458
                    CHANNELS 3 Zrotation Yrotation Xrotation
                    JOINT LeftElbow
                    {
                        OFFSET 2.272872 -0.026639 0.059314
                        CHANNELS 3 Zrotation Yrotation Xrotation
                        JOINT LeftWrist
                        {
                            OFFSET 2.081982 -0.024402 0.054333
                            CHANNELS 3 Zrotation Yrotation Xrotation
                            JOINT LeftHandThumb1
                            {
                                OFFSET 0.218903 -0.128645 0.283837
                                CHANNELS 3 Zrotation Yrotation Xrotation
                                JOINT LeftHandThumb2
                                {
                                    OFFSET 0.137157 -0.025101 0.077902
                                    CHANNELS 3 Zrotation Yrotation Xrotation
                                    JOINT LeftHandThumb3
                                    {
                                        OFFSET 0.171674 0.036904 -0.052013
                                        CHANNELS 3 Zrotation Yrotation Xrotation
                                        End Site
                                        {
                                            OFFSET 0.251618 0.091573 0.011786
                                        }
                                    }
                                }
                            }
                            JOINT LeftHandFore1
                            {
                                OFFSET 0.767340 -0.016076 0.196678
                                CHANNELS 3 Zrotation Yrotation Xrotation
                                JOINT LeftHandFore2
                                {
                                    OFFSET 0.216038 0.012328 0.013082
                                    CHANNELS 3 Zrotation Yrotation Xrotation
                                    JOINT LeftHandFore3
                                    {
                                        OFFSET 0.129239 0.001461 0.007624
                                        CHANNELS 3 Zrotation Yrotation Xrotation
                                        End Site
                                        {
                                            OFFSET 0.193139 -0.002701 0.007547
                                        }
                                    }
                                }
                            }
                            JOINT LeftHandMiddle1
                            {
                                OFFSET 0.709887 -0.008320 0.018526
                                CHANNELS 3 Zrotation Yrotation Xrotation
                                JOINT LeftHandMiddle2
                                {
                                    OFFSET 0.244546 -0.006833 0.014631
                                    CHANNELS 3 Zrotation Yrotation Xrotation
                                    JOINT LeftHandMiddle3
                                    {
                                        OFFSET 0.143763 -0.025002 0.009513
                                        CHANNELS 3 Zrotation Yrotation Xrotation
                                        End Site
                                        {
                                            OFFSET 0.228894 -0.054529 0.016259
                                        }
                                    }
                                }
                            }
                            JOINT LeftHandRing1
                            {
                                OFFSET 0.743817 -0.005823 -0.153668
                                CHANNELS 3 Zrotation Yrotation Xrotation
                                JOINT LeftHandRing2
                                {
                                    OFFSET 0.347131 -0.064865 -0.005052
                                    CHANNELS 3 Zrotation Yrotation Xrotation
                                    JOINT LeftHandRing3
                                    {
                                        OFFSET 0.121200 -0.062069 0.007974
                                        CHANNELS 3 Zrotation Yrotation Xrotation
                                        End Site
                                        {
                                            OFFSET 0.095250 -0.072591 0.008824
                                        }
                                    }
                                }
                            }
                            JOINT LeftHandLittle1
                            {
                                OFFSET 0.689408 -0.053302 -0.308304
                                CHANNELS 3 Zrotation Yrotation Xrotation
                                JOINT LeftHandLittle2
                                {
                                    OFFSET 0.189664 -0.044582 -0.009696
                                    CHANNELS 3 Zrotation Yrotation Xrotation
                                    JOINT LeftHandLittle3
                                    {
                                        OFFSET 0.087166 -0.083031 0.002069
                                        CHANNELS 3 Zrotation Yrotation Xrotation
                                        End Site
                                        {
                                            OFFSET 0.108006 -0.155188 0.023240
                                        }
                                    }
                                }
                            }
                        }
                    }
                }
            }
            JOINT RightCollar
            {
                OFFSET -0.167536 0.778237 -0.168280
                CHANNELS 3 Zrotation Yrotation Xrotation
                JOINT RightShoulder
                {
                    OFFSET -0.831514 -0.002900 0.006457
                    CHANNELS 3 Zrotation Yrotation Xrotation
                    JOINT RightElbow
                    {
                        OFFSET -2.272872 -0.026639 0.059313
                        CHANNELS 3 Zrotation Yrotation Xrotation
                        JOINT RightWrist
                        {
                            OFFSET -2.081982 -0.024402 0.054331
                            CHANNELS 3 Zrotation Yrotation Xrotation
                            JOINT RightHandThumb1
                            {
                                OFFSET -0.218911 -0.128571 0.283837
                                CHANNELS 3 Zrotation Yrotation Xrotation
                                JOINT RightHandThumb2
                                {
                                    OFFSET -0.137157 -0.025101 0.077902
                                    CHANNELS 3 Zrotation Yrotation Xrotation
                                    JOINT RightHandThumb3
                                    {
                                        OFFSET -0.140065 -0.053900 0.104957
                                        CHANNELS 3 Zrotation Yrotation Xrotation
                                        End Site
                                        {
                                            OFFSET -0.133818 -0.031817 0.230037
                                        }
                                    }
                                }
                            }
                            JOINT RightHandFore1
                            {
                                OFFSET -0.767344 -0.015991 0.196679
                                CHANNELS 3 Zrotation Yrotation Xrotation
                                JOINT RightHandFore2
                                {
                                    OFFSET -0.215851 -0.012586 0.015702
                                    CHANNELS 3 Zrotation Yrotation Xrotation
                                    JOINT RightHandFore3
                                    {
                                        OFFSET -0.128423 -0.013402 0.009482
                                        CHANNELS 3 Zrotation Yrotation Xrotation
                                        End Site
                                        {
                                            OFFSET -0.190144 -0.029978 0.017710
                                        }
                                    }
                                }
                            }
                            JOINT RightHandMiddle1
                            {
                                OFFSET -0.709887 -0.008302 0.018525
                                CHANNELS 3 Zrotation Yrotation Xrotation
                                JOINT RightHandMiddle2
                                {
                                    OFFSET -0.122742 -0.208035 0.041448
                                    CHANNELS 3 Zrotation Yrotation Xrotation
                                    JOINT RightHandMiddle3
                                    {
                                        OFFSET 0.140738 0.016276 -0.036225
                                        CHANNELS 3 Zrotation Yrotation Xrotation
                                        End Site
                                        {
                                            OFFSET 0.141324 0.182528 -0.048386
                                        }
                                    }
                                }
                            }
                            JOINT RightHandRing1
                            {
                                OFFSET -0.743819 -0.005785 -0.153669
                                CHANNELS 3 Zrotation Yrotation Xrotation
                                JOINT RightHandRing2
                                {
                                    OFFSET -0.144569 -0.316360 0.061230
                                    CHANNELS 3 Zrotation Yrotation Xrotation
                                    JOINT RightHandRing3
                                    {
                                        OFFSET 0.131632 0.013248 -0.033202
                                        CHANNELS 3 Zrotation Yrotation Xrotation
                                        End Site
                                        {
                                            OFFSET 0.044237 0.110273 -0.017410
                                        }
                                    }
                                }
                            }
                            JOINT RightHandLittle1
                            {
                                OFFSET -0.689403 -0.053298 -0.308303
                                CHANNELS 3 Zrotation Yrotation Xrotation
                                JOINT RightHandLittle2
                                {
                                    OFFSET -0.070626 -0.179669 0.028037
                                    CHANNELS 3 Zrotation Yrotation Xrotation
                                    JOINT RightHandLittle3
                                    {
                                        OFFSET 0.117846 -0.019946 -0.014488
                                        CHANNELS 3 Zrotation Yrotation Xrotation
                                        End Site
                                        {
                                            OFFSET 0.083348 0.170556 -0.015880
                                        }
                                    }
                                }
                            }
                        }
                    }
                }
            }
        }
    }
    JOINT LeftHip
    {
        OFFSET 0.685143 0.673822 -0.044491
        CHANNELS 3 Zrotation Yrotation Xrotation
        JOINT LeftKnee
        {
            OFFSET 0.085364 -3.750208 0.017676
            CHANNELS 3 Zrotation Yrotation Xrotation
            JOINT LeftAnkle
            {
                OFFSET 0.094583 -4.155206 0.019585
                CHANNELS 3 Zrotation Yrotation Xrotation
                JOINT LeftToe
                {
                    OFFSET -0.000000 -0.395925 0.621478
                    CHANNELS 3 Zrotation Yrotation Xrotation
                    End Site
                    {
                        OFFSET -0.000000 -0.077878 0.321152
                    }
                }
            }
        }
    }
    JOINT RightHip
    {
        OFFSET -0.685143 0.673822 -0.044492
        CHANNELS 3 Zrotation Yrotation Xrotation
        JOINT RightKnee
        {
            OFFSET -0.085364 -3.750208 0.017677
            CHANNELS 3 Zrotation Yrotation Xrotation
            JOINT RightAnkle
            {
                OFFSET -0.094583 -4.155206 0.019585
                CHANNELS 3 Zrotation Yrotation Xrotation
                JOINT RightToe
                {
                    OFFSET -0.000000 -0.395925 0.621478
                    CHANNELS 3 Zrotation Yrotation Xrotation
                    End Site
                    {
                        OFFSET -0.000000 -0.077878 0.321152
                    }
                }
            }
        }
    }
}
MOTION
Frames: 4
Frame Time: 0.033333
-0.001611 8.264678 -0.479481 180.000000 -0.000011 180.000000 -3.106002 0.648967 -4.636079 0.006429 -0.100803 -3.645220 8.902085 -1.522308 6.702514 0.160327 -3.111015 14.894276 -6.828301 -0.755191 -0.014991 -0.099186 4.862884 75.682007 177.967255 -60.602165 -178.819351 16.257347 -10.291685 13.536840 0.000000 -0.000001 -0.000002 -0.000002 0.000005 -0.000002 0.000000 -0.000008 0.000003 0.000000 -0.000002 0.000000 0.000003 -0.000000 0.000003 0.000000 -0.000006 0.000000 -0.000003 -0.000003 -0.000003 0.000003 0.000005 0.000003 -0.000003 -0.000002 0.000002 -0.000005 -0.000003 -0.000002 0.000000 0.000004 0.000003 0.000003 -0.000002 -0.000002 0.000003 -0.000000 0.000002 -0.000003 -0.000001 0.000003 0.000005 -0.000001 0.000002 -9.192875 4.208246 -0.030528 -33.525269 8.479687 -1.736303 -0.014244 12.007814 -0.142731 8.475492 -15.689805 -51.379215 -0.000008 0.000003 -0.000002 0.000002 -0.000001 0.000000 0.000000 -0.000006 0.000003 -0.000001 0.000001 0.000000 0.000002 -0.000003 -0.000002 -0.000001 -0.000003 0.000000 0.000002 0.000002 -0.000003 -0.000003 -0.000007 0.000002 0.000001 0.000003 0.000000 -0.000001 -0.000000 -0.000003 0.000003 -0.000002 0.000003 0.000001 -0.000001 -0.000005 0.000002 0.000000 0.000002 -0.000002 0.000000 0.000000 -0.000001 0.000008 0.000000 -0.618143 4.475601 -3.906781 0.037675 0.311182 13.804112 -14.305393 3.958858 -14.639495 -0.203262 -1.632977 -6.534593 0.302985 -11.659128 -3.685944 -0.033988 -0.295824 13.110272 13.751420 2.713948 -12.523722 0.208661 1.706320 -6.657837
-0.001611 8.264678 -0.479481 180.000000 -0.000011 180.000000 -3.111126 0.634086 -4.639187 0.020316 -0.099560 -3.634316 8.902717 -1.518447 6.700141 0.159909 -3.102884 14.889874 -6.828680 -0.755409 -0.014945 -0.105855 4.862533 75.683281 177.967377 -60.598793 -178.819519 16.253992 -10.291630 13.536580 0.000009 0.000017 0.000002 -0.000003 -0.000009 0.000003 -0.000005 0.000001 0.000000 0.000010 0.000010 0.000000 0.000003 0.000001 -0.000002 0.000005 0.000002 0.000003 0.000007 0.000003 0.000002 0.000000 0.000001 0.000000 -0.000002 -0.000009 0.000002 0.000003 0.000003 0.000003 -0.000002 -0.000001 0.000000 0.000005 -0.000000 -0.000002 0.000003 -0.000004 0.000000 -0.000003 0.000001 -0.000003 0.000002 -0.000008 0.000007 -9.195462 4.209768 -0.030478 -33.535133 8.521013 -1.738470 -0.014059 11.932198 -0.141808 8.475703 -15.689876 -51.377037 -0.000013 -0.000007 -0.000010 0.000006 0.000004 0.000003 -0.000003 0.000002 -0.000003 -0.000011 0.000013 -0.000010 0.000000 -0.000000 0.000000 0.000002 -0.000002 0.000005 -0.000005 -0.000000 -0.000015 0.000000 -0.000001 0.000000 -0.000000 -0.000000 0.000000 -0.000005 0.000002 -0.000012 0.000000 0.000001 0.000002 -0.000001 0.000003 -0.000003 -0.000006 0.000002 -0.000017 0.000001 -0.000002 -0.000002 0.000001 -0.000000 0.000005 -0.618074 4.477108 -3.906808 0.037675 0.311182 13.804113 -14.305285 3.959006 -14.638728 -0.203263 -1.633233 -6.535690 0.302989 -11.659063 -3.685943 -0.033987 -0.295824 13.110271 13.752797 2.714448 -12.523188 0.208679 1.706597 -6.658193
-0.001611 8.264678 -0.479481 180.000000 -0.000011 180.000000 -3.117094 0.652039 -4.638597 0.011342 -0.101654 -3.633707 8.903168 -1.523588 6.698745 0.160564 -3.115597 14.886665 -6.825668 -0.757713 -0.015140 -0.090503 4.841506 75.665833 177.968094 -60.581730 -178.820343 16.244049 -10.291470 13.535827 0.000015 0.000006 0.000009 -0.000002 0.000004 0.000002 0.000002 -0.000001 0.000002 0.000005 -0.000001 -0.000005 0.000005 0.000002 0.000003 -0.000005 -0.000003 0.000000 0.000007 -0.000003 0.000000 -0.000003 0.000002 0.000000 0.000000 0.000003 -0.000003 0.000009 -0.000003 0.000003 -0.000002 -0.000000 0.000003 0.000009 -0.000003 0.000003 0.000015 -0.000008 0.000002 0.000003 -0.000003 -0.000003 0.000003 -0.000003 -0.000002 -9.193398 4.206694 -0.030708 -33.522747 8.534274 -1.735448 -0.013903 11.869905 -0.141044 8.476330 -15.690089 -51.370579 -0.000006 -0.000007 0.000000 0.000000 -0.000000 0.000000 -0.000000 0.000003 -0.000002 -0.000003 0.000002 -0.000010 0.000003 -0.000003 0.000002 0.000001 0.000001 0.000005 0.000005 -0.000003 -0.000015 -0.000004 0.000002 0.000000 0.000001 -0.000002 0.000000 -0.000007 -0.000005 -0.000009 -0.000003 0.000001 -0.000002 0.000003 -0.000004 -0.000002 -0.000004 0.000001 -0.000012 -0.000004 0.000009 0.000002 0.000005 -0.000007 -0.000002 -0.617868 4.481574 -3.906864 0.037675 0.311180 13.804064 -14.304972 3.959445 -14.636433 -0.203262 -1.633998 -6.538957 0.302999 -11.658865 -3.685941 -0.033987 -0.295824 13.110273 13.756874 2.715939 -12.521595 0.208748 1.707413 -6.659270
-0.001611 8.264678 -0.479481 180.000000 -0.000011 180.000000 -3.125731 0.668232 -4.638797 -0.002985 -0.103071 -3.628823 8.904225 -1.529387 6.695937 0.161186 -3.127617 14.881015 -6.820541 -0.762242 -0.015208 -0.063827 4.813789 75.642540 177.969330 -60.552551 -178.821762 16.227718 -10.291200 13.534575 0.000000 0.000002 0.000003 0.000000 0.000001 0.000003 0.000002 -0.000001 0.000003 0.000000 0.000001 0.000015 -0.000003 0.000001 0.000003 0.000000 -0.000003 -0.000003 0.000000 -0.000003 0.000017 -0.000002 -0.000000 -0.000002 0.000000 -0.000002 -0.000002 -0.000003 0.000001 0.000020 0.000002 0.000002 -0.000002 0.000003 0.000002 0.000003 0.000000 -0.000009 0.000017 -0.000003 0.000003 0.000002 0.000002 -0.000001 -0.000002 -9.190272 4.202177 -0.030763 -33.504566 8.573741 -1.731939 -0.013612 11.748002 -0.139557 8.477368 -15.690451 -51.359970 -0.000018 -0.000009 -0.000002 0.000006 -0.000006 0.000000 0.000000 0.000004 0.000005 -0.000005 -0.000001 -0.000010 0.000000 -0.000002 -0.000002 0.000000 -0.000002 -0.000002 -0.000005 -0.000010 -0.000009 -0.000004 -0.000000 0.000003 0.000004 -0.000001 0.000000 -0.000004 -0.000007 -0.000010 0.000003 -0.000006 0.000003 -0.000004 0.000007 -0.000003 -0.000002 -0.000007 -0.000010 0.000001 -0.000002 -0.000002 -0.000000 0.000007 0.000005 -0.617531 4.488925 -3.907001 0.037675 0.311181 13.804067 -14.304459 3.960143 -14.632687 -0.203265 -1.635253 -6.544336 0.303016 -11.658534 -3.685965 -0.033988 -0.295825 13.110326 13.763577 2.718389 -12.518995 0.208861 1.708749 -6.661017
